<?xml version="1.0" encoding="UTF-8" standalone="no"?>
<!-- Created with Inkscape (http://www.inkscape.org/) -->

<svg
   xmlns:dc="http://purl.org/dc/elements/1.1/"
   xmlns:cc="http://creativecommons.org/ns#"
   xmlns:rdf="http://www.w3.org/1999/02/22-rdf-syntax-ns#"
   xmlns:svg="http://www.w3.org/2000/svg"
   xmlns="http://www.w3.org/2000/svg"
   xmlns:sodipodi="http://sodipodi.sourceforge.net/DTD/sodipodi-0.dtd"
   xmlns:inkscape="http://www.inkscape.org/namespaces/inkscape"
   width="210mm"
   height="297mm"
   id="svg2"
   version="1.1"
   inkscape:version="0.48.4 r9939"
   sodipodi:docname="Neues Dokument 1">
  <defs
     id="defs4" />
  <sodipodi:namedview
     id="base"
     pagecolor="#ffffff"
     bordercolor="#666666"
     borderopacity="1.0"
     inkscape:pageopacity="0.0"
     inkscape:pageshadow="2"
     inkscape:zoom="0.91086377"
     inkscape:cx="369.28822"
     inkscape:cy="559.4527"
     inkscape:document-units="px"
     inkscape:current-layer="layer1"
     showgrid="false"
     inkscape:window-width="1227"
     inkscape:window-height="776"
     inkscape:window-x="53"
     inkscape:window-y="24"
     inkscape:window-maximized="1" />
  <metadata
     id="metadata7">
    <rdf:RDF>
      <cc:Work
         rdf:about="">
        <dc:format>image/svg+xml</dc:format>
        <dc:type
           rdf:resource="http://purl.org/dc/dcmitype/StillImage" />
        <dc:title></dc:title>
      </cc:Work>
    </rdf:RDF>
  </metadata>
  <g
     inkscape:label="Ebene 1"
     inkscape:groupmode="layer"
     id="layer1">
    <path
       sodipodi:type="arc"
       style="fill:#ffffff;fill-rule:evenodd;stroke:#000000;stroke-width:1px;stroke-linecap:butt;stroke-linejoin:miter;stroke-opacity:1"
       id="path2985"
       sodipodi:cx="369.29626"
       sodipodi:cy="214.17421"
       sodipodi:rx="212.41147"
       sodipodi:ry="48.475647"
       d="m 581.70773,214.17421 a 212.41147,48.475647 0 1 1 -424.82293,0 212.41147,48.475647 0 1 1 424.82293,0 z" />
    <path
       style="fill:none;stroke:#000000;stroke-width:1px;stroke-linecap:butt;stroke-linejoin:miter;stroke-opacity:1"
       d="m 156.86871,214.66434 c 73.2436,362.27893 33.94252,420.24988 31.74562,583.86174"
       id="path2989"
       inkscape:connector-curvature="0"
       sodipodi:nodetypes="cc" />
    <path
       style="fill:none;stroke:#000000;stroke-width:1px;stroke-linecap:butt;stroke-linejoin:miter;stroke-opacity:1"
       d="M 581.18553,217.49621 C 490.35882,575.37936 538.1629,637.0939 548.62377,802.77175"
       id="path2989-4"
       inkscape:connector-curvature="0"
       sodipodi:nodetypes="cc" />
    <path
       style="fill:none;stroke:#000000;stroke-width:0.40223452px;stroke-linecap:butt;stroke-linejoin:miter;stroke-opacity:1"
       d="m 188.43297,798.37485 c 135.72672,29.44229 251.10767,27.88695 360.3017,4.26387"
       id="path3009"
       inkscape:connector-curvature="0"
       sodipodi:nodetypes="cc" />
    <path
       style="fill:none;stroke:#000000;stroke-width:0.3840588px;stroke-linecap:butt;stroke-linejoin:miter;stroke-opacity:1"
       d="m 197.28559,484.33196 c 123.62668,29.46873 234.64535,24.74239 334.10474,1.0981"
       id="path3009-6"
       inkscape:connector-curvature="0"
       sodipodi:nodetypes="cc" />
    <path
       style="fill:none;stroke:#000000;stroke-width:0.39604002px;stroke-linecap:butt;stroke-linejoin:miter;stroke-opacity:1"
       d="m 188.53564,406.55006 c 131.5382,29.45129 247.08855,24.08115 352.91286,0.45084"
       id="path3009-8"
       inkscape:connector-curvature="0"
       sodipodi:nodetypes="cc" />
    <path
       style="fill:none;stroke:#000000;stroke-width:0.38262388px;stroke-linecap:butt;stroke-linejoin:miter;stroke-opacity:1"
       d="m 200.92026,569.11553 c 122.69592,29.47082 227.72135,23.93723 326.43192,0.29129"
       id="path3009-0"
       inkscape:connector-curvature="0"
       sodipodi:nodetypes="cc" />
    <flowRoot
       xml:space="preserve"
       id="flowRoot3043"
       style="font-size:40px;font-style:normal;font-variant:normal;font-weight:normal;font-stretch:normal;text-align:center;line-height:125%;letter-spacing:0px;word-spacing:0px;writing-mode:lr-tb;text-anchor:middle;fill:#000000;fill-opacity:1;stroke:none;font-family:Sans;-inkscape-font-specification:Sans"
       transform="matrix(1.8759674,0,0,1.7017065,-327.13316,-330.77937)"><flowRegion
         id="flowRegion3045"><rect
           id="rect3047"
           width="226.85446"
           height="48.611664"
           x="255.52286"
           y="440.35376"
           style="font-size:40px;font-style:normal;font-variant:normal;font-weight:normal;font-stretch:normal;text-align:center;line-height:125%;writing-mode:lr-tb;text-anchor:middle;font-family:Sans;-inkscape-font-specification:Sans" /></flowRegion><flowPara
         id="flowPara3049">Dev</flowPara></flowRoot>    <flowRoot
       xml:space="preserve"
       id="flowRoot3043-8"
       style="font-size:40px;font-style:normal;font-variant:normal;font-weight:normal;font-stretch:normal;text-align:center;line-height:125%;letter-spacing:0px;word-spacing:0px;writing-mode:lr-tb;text-anchor:middle;fill:#000000;fill-opacity:1;stroke:none;font-family:Sans;-inkscape-font-specification:Sans"
       transform="matrix(1.8759674,0,0,1.7017065,-328.02393,-242.21311)"><flowRegion
         id="flowRegion3045-6"><rect
           id="rect3047-5"
           width="226.85446"
           height="48.611664"
           x="255.52286"
           y="440.35376"
           style="font-size:40px;font-style:normal;font-variant:normal;font-weight:normal;font-stretch:normal;text-align:center;line-height:125%;writing-mode:lr-tb;text-anchor:middle;font-family:Sans;-inkscape-font-specification:Sans" /></flowRegion><flowPara
         id="flowPara3049-4">null</flowPara></flowRoot>    <path
       style="fill:#aa4400"
       d="m 331.74144,503.10115 c -31.06081,-1.6463 -65.08817,-5.71771 -96.06266,-11.49399 -14.29259,-2.66536 -35.92191,-7.20256 -36.57898,-7.67322 -0.1923,-0.13773 -1.54712,-12.60898 -3.01071,-27.71387 -1.4636,-15.10488 -3.14911,-30.83906 -3.74559,-34.96483 -0.59649,-4.12577 -1.0943,-8.79967 -1.10626,-10.38645 l -0.0218,-2.88505 7.41055,1.55639 c 107.54034,22.58615 212.40541,23.56527 318.97095,2.97822 11.34527,-2.19176 20.90847,-3.70431 21.25155,-3.36123 0.34308,0.34308 -0.40873,7.19912 -1.67069,15.23563 -1.26196,8.03652 -3.31025,23.50451 -4.55176,34.37331 -1.24151,10.86881 -2.48776,21.26164 -2.76944,23.09518 l -0.51216,3.33372 -23.32371,4.65592 c -61.10492,12.19787 -115.7499,16.35247 -174.27934,13.25027 z m 53.30894,-16.47001 c 4.56771,-1.15017 4.87759,-1.46404 4.87759,-4.94037 0,-4.30795 0.29281,-4.18119 -4.77103,-2.06539 -5.23794,2.18856 -15.97749,2.15117 -19.14386,-0.0666 -2.13358,-1.49442 -5.7273,-6.9294 -5.7273,-8.66171 0,-0.33189 6.91651,-0.60345 15.37002,-0.60345 l 15.37003,0 -0.002,-4.6659 c -0.002,-6.07301 -2.88699,-11.66563 -7.68281,-14.89286 -3.33435,-2.24378 -4.88774,-2.53459 -11.74629,-2.19908 -8.42928,0.41234 -11.80804,2.051 -16.11016,7.81322 -2.66864,3.57436 -3.68398,14.23115 -1.87742,19.70507 3.21645,9.74597 16.71345,14.28616 31.44343,10.57711 l 0,0 z m -56.78631,-1.56359 c 11.59814,-3.44427 17.679,-13.2858 16.32356,-26.41873 -1.67575,-16.23651 -11.45378,-22.38887 -35.58296,-22.38887 l -11.29686,0 0,25.25076 0,25.25076 12.42612,0 c 8.00258,0 14.45667,-0.60301 18.13014,-1.69392 z m 101.06134,-15.52528 c 9.26129,-22.6793 9.0239,-21.43428 4.00543,-21.00648 l -4.10043,0.34954 -5.72531,13.97801 c -3.14892,7.68791 -5.9898,14.2425 -6.31305,14.56575 -0.32326,0.32326 -3.27646,-5.96685 -6.56267,-13.97801 l -5.97493,-14.56575 -4.06966,-0.34073 c -2.23832,-0.18741 -4.06966,0.0251 -4.06966,0.47236 0,0.76255 13.98508,35.13633 15.02147,36.92111 0.26297,0.45287 2.79566,0.81182 5.62818,0.79767 l 5.15003,-0.0257 7.0106,-17.16774 z"
       id="path3078"
       inkscape:connector-curvature="0" />
    <path
       style="fill:#aa4400"
       d="m 362.15083,460.16695 c 2.40165,-4.1122 8.69858,-6.95898 13.00316,-5.8786 3.44199,0.86389 8.18683,5.33897 8.18683,7.72139 0,1.42356 -1.87197,1.69669 -11.62858,1.69669 l -11.62858,0 2.06717,-3.53948 z"
       id="path3080"
       inkscape:connector-curvature="0" />
    <path
       style="fill:#aa4400"
       d="m 306.49069,461.50733 0,-18.94234 8.62987,0.49958 c 9.45859,0.54755 14.26548,2.60726 18.10448,7.75765 3.20915,4.30539 3.23719,17.03613 0.0469,21.30915 -4.45313,5.96449 -7.4322,7.30272 -17.42419,7.82717 l -9.35708,0.49112 0,-18.94233 z"
       id="path3082"
       inkscape:connector-curvature="0" />
    <path
       style="fill:#aa4400"
       d="m 334.48609,818.28771 c -36.8763,-2.44564 -80.66929,-8.0432 -116.92198,-14.94484 -11.17072,-2.12663 -21.99248,-4.15129 -24.04836,-4.49924 l -3.73796,-0.63265 0.70576,-23.70721 c 0.38817,-13.03896 2.68398,-49.15009 5.10179,-80.24695 2.41782,-31.09685 4.97262,-71.60785 5.67734,-90.02444 0.70472,-18.41658 1.34317,-33.58412 1.41877,-33.70563 0.0756,-0.12151 5.30777,0.93863 11.62703,2.35587 98.51925,22.09522 195.76905,22.53932 294.18826,1.34343 l 17.01682,-3.6648 0.76382,20.40361 c 1.11049,29.66373 3.50059,55.07756 10.179,108.23233 7.62179,60.66326 9.40402,77.524 9.68648,91.63837 l 0.23002,11.49467 -18.11467,3.53372 c -20.43654,3.98666 -51.3188,8.32687 -77.39906,10.87772 -20.61628,2.01643 -94.4833,2.99776 -116.37306,1.54604 z"
       id="path3084"
       inkscape:connector-curvature="0" />
    <path
       style="fill:#e9c6af"
       d="m 333.49336,587.74211 c -40.8869,-2.20379 -73.31641,-6.78329 -125.38156,-17.70566 l -5.6098,-1.17684 -0.74241,-24.30672 c -0.40832,-13.3687 -1.26759,-31.87419 -1.90947,-41.12333 -0.64189,-9.24913 -0.95052,-17.03314 -0.68586,-17.2978 0.26466,-0.26466 5.8715,0.73423 12.45964,2.21976 18.93936,4.27055 55.20808,10.22831 76.75211,12.60784 75.76157,8.36786 151.10788,4.84835 222.29217,-10.38351 9.8632,-2.1105 18.14257,-3.6278 18.3986,-3.37176 0.25603,0.25603 -0.0871,6.80717 -0.76235,14.55808 -0.67533,7.75091 -1.53393,26.07295 -1.90799,40.71564 -0.37407,14.6427 -0.85408,26.62308 -1.06671,26.62308 -0.21262,0 -8.40984,1.71906 -18.21605,3.82014 -17.24244,3.69435 -44.2179,8.3384 -61.1949,10.53521 -30.56928,3.95564 -82.10342,5.92022 -112.42542,4.28587 z m 40.08099,-14.16067 c 3.15489,-2.3325 3.17931,-2.33344 3.17931,-0.12198 0,1.81505 0.71302,2.22859 3.84251,2.22859 l 3.84251,0 0,-19.21253 0,-19.21254 -3.75297,0 -3.75298,0 -0.36399,13.69583 c -0.41777,15.71861 -1.47703,17.83767 -9.45124,18.90723 -3.78508,0.50769 -4.90195,0.16658 -7.29719,-2.22867 -2.73834,-2.73833 -2.82811,-3.26532 -2.82811,-16.60125 l 0,-13.77314 -3.84251,0 -3.8425,0 0.004,14.54664 c 0.003,12.64816 0.29295,15.02039 2.21733,18.17676 4.20024,6.88919 15.17049,8.67814 22.04573,3.59506 l -2.9e-4,0 z m -63.79009,-9.91818 c 0,-13.32292 1.06696,-16.97731 5.64852,-19.34653 4.45131,-2.30186 8.37439,-1.91352 11.4182,1.13029 2.57469,2.57469 2.69475,3.30837 2.69475,16.46789 l 0,13.77314 3.8425,0 3.84251,0 -0.004,-14.54663 c -0.003,-12.65341 -0.29247,-15.01961 -2.21975,-18.18074 -4.2329,-6.94277 -15.66929,-8.66155 -22.40071,-3.36661 l -2.82163,2.21971 0,-2.2754 c 0,-1.86855 -0.68705,-2.2754 -3.8425,-2.2754 l -3.84251,0 0,19.21254 0,19.21253 3.84251,0 3.8425,0 0,-12.02479 z m 95.51374,-14.32383 0,-26.34861 -3.84251,0 -3.84251,0 0,26.34861 0,26.34862 3.84251,0 3.84251,0 0,-26.34862 z m 20.85932,0 0,-26.34861 -3.84251,0 -3.8425,0 0,26.34861 0,26.34862 3.8425,0 3.84251,0 0,-26.34862 z"
       id="path3088"
       inkscape:connector-curvature="0" />
    <path
       style="fill:#e9c6af"
       d="m 331.74144,425.20609 c -38.82192,-1.88769 -81.79648,-7.1831 -120.80118,-14.88536 l -20.34708,-4.01793 -3.60545,-25.36775 c -4.78487,-33.66612 -14.29375,-90.07037 -21.04949,-124.86015 -3.00454,-15.47237 -5.4628,-28.68703 -5.4628,-29.36591 0,-0.67887 2.34667,0.43601 5.21483,2.47751 22.05813,15.70061 69.62777,26.63232 139.70256,32.10426 30.84384,2.4085 96.81636,2.39702 127.90057,-0.0223 69.58929,-5.41614 119.55311,-16.84098 139.18505,-31.82639 2.85088,-2.17612 5.18341,-3.51971 5.18341,-2.98574 0,0.53396 -2.74724,12.26407 -6.10496,26.0669 -11.23367,46.17891 -27.88672,126.49895 -30.74103,148.26832 l -0.74753,5.70134 -5.08167,1.08174 c -24.20545,5.15261 -67.47086,12.03659 -90.16575,14.34631 -33.78923,3.43881 -81.44551,4.82329 -113.07948,3.28511 l 0,0 z"
       id="path3090"
       inkscape:connector-curvature="0" />
    <path
       style="fill:#241c1c"
       d="m 340.52432,261.05907 c -93.52383,-3.59542 -164.52364,-19.13943 -179.056,-39.20076 -5.05483,-6.97799 -4.46677,-10.94397 2.64396,-17.83125 22.78529,-22.06929 104.7048,-36.76993 204.92082,-36.77349 102.29519,-0.004 187.16874,15.5536 207.13701,37.96801 5.8611,6.57908 5.38801,12.71329 -1.49209,19.34713 -16.80275,16.20131 -69.42189,29.16679 -139.46008,34.36327 -21.00303,1.55832 -76.85445,2.8129 -94.69362,2.12709 z"
       id="path3092"
       inkscape:connector-curvature="0" />
  </g>
</svg>
